<?xml version="1.0" standalone="no"?>
<!DOCTYPE svg PUBLIC "-//W3C//DTD SVG 20010904//EN"
 "http://www.w3.org/TR/2001/REC-SVG-20010904/DTD/svg10.dtd">
<svg version="1.0" xmlns="http://www.w3.org/2000/svg"
 width="633.000000pt" height="633.000000pt" viewBox="0 0 633.000000 633.000000"
 preserveAspectRatio="xMidYMid meet">
<metadata>
Created by potrace 1.14, written by Peter Selinger 2001-2017
</metadata>
<g transform="translate(0.000000,633.000000) scale(0.100000,-0.100000)"
fill="#000000" stroke="none">
<path d="M4885 6311 c-49 -23 -79 -54 -101 -106 -14 -35 -16 -102 -16 -608 0
-440 2 -574 12 -593 7 -13 34 -33 59 -45 66 -32 225 -33 293 -2 78 36 77 29
77 363 0 162 0 315 0 340 l1 45 485 0 c267 0 485 3 485 8 0 4 -4 7 -8 7 -4 0
-23 15 -42 33 -19 18 -62 55 -95 82 -33 28 -62 52 -65 55 -3 3 -35 32 -72 64
-38 32 -68 62 -68 66 0 4 37 38 81 76 45 37 87 73 93 79 6 5 41 35 76 65 36
30 74 63 84 72 19 17 -8 18 -610 18 -590 0 -631 -2 -669 -19z"/>
<path d="M1745 5370 c-22 -4 -59 -10 -81 -13 -165 -23 -376 -105 -540 -212
-80 -52 -99 -66 -178 -135 -247 -216 -432 -559 -474 -880 -9 -68 -8 -350 0
-405 39 -236 126 -454 255 -636 57 -79 185 -218 260 -281 134 -114 415 -256
554 -281 13 -3 42 -10 64 -15 22 -6 65 -14 95 -17 30 -3 66 -8 80 -10 24 -4
513 -9 1980 -20 416 -3 746 -10 788 -16 386 -55 690 -367 739 -759 8 -57 7
-420 0 -480 -46 -379 -333 -685 -712 -757 -44 -9 -636 -8 -1435 2 -289 4 -688
8 -887 9 l-361 1 -44 -30 c-118 -82 -126 -251 -18 -349 22 -19 56 -39 77 -45
22 -6 259 -12 553 -16 283 -3 758 -8 1055 -11 1031 -12 1042 -12 1206 27 246
57 455 174 631 352 194 197 328 464 365 727 10 70 10 588 1 656 -35 241 -156
499 -315 674 -27 29 -55 60 -63 69 -30 33 -137 119 -195 158 -162 106 -353
178 -555 208 -48 7 -441 13 -1495 20 -1302 9 -1304 9 -1409 34 -183 44 -341
129 -481 258 -34 32 -155 176 -155 186 0 3 -13 28 -28 54 -113 190 -152 447
-108 698 18 101 83 253 154 359 66 100 245 276 280 276 5 0 15 6 21 14 22 26
301 148 301 131 0 -2 15 1 33 6 69 20 180 22 1352 23 1306 1 1218 -3 1292 53
128 97 81 324 -77 372 -44 13 -2456 14 -2525 1z"/>
<path d="M830 2130 c-183 -37 -327 -115 -456 -248 -239 -244 -307 -612 -174
-942 49 -124 117 -205 460 -548 183 -183 334 -332 337 -332 16 0 684 683 717
733 154 236 190 507 100 774 -37 110 -102 218 -189 312 -61 65 -192 157 -278
195 -150 67 -357 89 -517 56z m262 -321 c169 -36 307 -154 369 -317 29 -75 35
-219 13 -294 -48 -161 -156 -278 -317 -340 -67 -26 -210 -32 -287 -12 -167 45
-302 182 -353 359 -20 70 -14 204 12 279 82 234 328 375 563 325z"/>
</g>
</svg>
